<mxfile host="app.diagrams.net" modified="2022-12-13T15:26:12.090Z" agent="5.0 (Windows NT 10.0; Win64; x64) AppleWebKit/537.36 (KHTML, like Gecko) Chrome/108.0.0.0 Safari/537.36" etag="DWo3i9bvZe4MIoUNvJ6K" version="20.6.2" type="github">
  <diagram id="R2lEEEUBdFMjLlhIrx00" name="Page-1">
    <mxGraphModel dx="1038" dy="575" grid="0" gridSize="10" guides="1" tooltips="1" connect="1" arrows="1" fold="1" page="1" pageScale="1" pageWidth="1100" pageHeight="850" math="0" shadow="0" extFonts="Permanent Marker^https://fonts.googleapis.com/css?family=Permanent+Marker">
      <root>
        <mxCell id="0" />
        <mxCell id="1" parent="0" />
        <mxCell id="eyfIspoltdJtA8h51cMl-1" value="STUDENT" style="rounded=1;whiteSpace=wrap;html=1;strokeColor=#000000;" vertex="1" parent="1">
          <mxGeometry x="160" y="180" width="120" height="60" as="geometry" />
        </mxCell>
        <mxCell id="eyfIspoltdJtA8h51cMl-2" value="APPLY" style="rhombus;whiteSpace=wrap;html=1;strokeColor=#000000;" vertex="1" parent="1">
          <mxGeometry x="400" y="170" width="90" height="80" as="geometry" />
        </mxCell>
        <mxCell id="eyfIspoltdJtA8h51cMl-3" value="" style="endArrow=none;html=1;rounded=0;exitX=1;exitY=0.5;exitDx=0;exitDy=0;entryX=0;entryY=0.5;entryDx=0;entryDy=0;" edge="1" parent="1" source="eyfIspoltdJtA8h51cMl-1" target="eyfIspoltdJtA8h51cMl-2">
          <mxGeometry width="50" height="50" relative="1" as="geometry">
            <mxPoint x="400" y="330" as="sourcePoint" />
            <mxPoint x="450" y="280" as="targetPoint" />
            <Array as="points">
              <mxPoint x="350" y="210" />
            </Array>
          </mxGeometry>
        </mxCell>
        <mxCell id="eyfIspoltdJtA8h51cMl-4" value="VACANCY" style="rounded=1;whiteSpace=wrap;html=1;strokeColor=#000000;" vertex="1" parent="1">
          <mxGeometry x="620" y="180" width="120" height="60" as="geometry" />
        </mxCell>
        <mxCell id="eyfIspoltdJtA8h51cMl-5" value="" style="endArrow=none;html=1;rounded=0;exitX=1;exitY=0.5;exitDx=0;exitDy=0;" edge="1" parent="1" source="eyfIspoltdJtA8h51cMl-2">
          <mxGeometry width="50" height="50" relative="1" as="geometry">
            <mxPoint x="540" y="210" as="sourcePoint" />
            <mxPoint x="620" y="210" as="targetPoint" />
            <Array as="points">
              <mxPoint x="610" y="210" />
            </Array>
          </mxGeometry>
        </mxCell>
        <mxCell id="eyfIspoltdJtA8h51cMl-6" value="COMPANY" style="rounded=1;whiteSpace=wrap;html=1;strokeColor=#000000;" vertex="1" parent="1">
          <mxGeometry x="385" y="420" width="120" height="60" as="geometry" />
        </mxCell>
        <mxCell id="eyfIspoltdJtA8h51cMl-8" value="" style="endArrow=none;html=1;rounded=0;entryX=0;entryY=0.5;entryDx=0;entryDy=0;" edge="1" parent="1" target="eyfIspoltdJtA8h51cMl-6">
          <mxGeometry width="50" height="50" relative="1" as="geometry">
            <mxPoint x="220" y="450" as="sourcePoint" />
            <mxPoint x="450" y="280" as="targetPoint" />
          </mxGeometry>
        </mxCell>
        <mxCell id="eyfIspoltdJtA8h51cMl-12" style="edgeStyle=orthogonalEdgeStyle;rounded=0;orthogonalLoop=1;jettySize=auto;html=1;exitX=0.5;exitY=1;exitDx=0;exitDy=0;" edge="1" parent="1" source="eyfIspoltdJtA8h51cMl-9">
          <mxGeometry relative="1" as="geometry">
            <mxPoint x="220" y="340" as="targetPoint" />
          </mxGeometry>
        </mxCell>
        <mxCell id="eyfIspoltdJtA8h51cMl-9" value="PROVIDE&lt;br&gt;JOB&lt;br&gt;OFFERS" style="rhombus;whiteSpace=wrap;html=1;strokeColor=#000000;" vertex="1" parent="1">
          <mxGeometry x="170" y="270" width="100" height="110" as="geometry" />
        </mxCell>
        <mxCell id="eyfIspoltdJtA8h51cMl-10" value="" style="endArrow=none;html=1;rounded=0;" edge="1" parent="1">
          <mxGeometry width="50" height="50" relative="1" as="geometry">
            <mxPoint x="220" y="450" as="sourcePoint" />
            <mxPoint x="220" y="390" as="targetPoint" />
          </mxGeometry>
        </mxCell>
        <mxCell id="eyfIspoltdJtA8h51cMl-14" value="" style="endArrow=none;html=1;rounded=0;exitX=0.5;exitY=0;exitDx=0;exitDy=0;entryX=0.5;entryY=1;entryDx=0;entryDy=0;" edge="1" parent="1" source="eyfIspoltdJtA8h51cMl-9" target="eyfIspoltdJtA8h51cMl-1">
          <mxGeometry width="50" height="50" relative="1" as="geometry">
            <mxPoint x="400" y="310" as="sourcePoint" />
            <mxPoint x="450" y="260" as="targetPoint" />
          </mxGeometry>
        </mxCell>
        <mxCell id="eyfIspoltdJtA8h51cMl-15" value="POSTS" style="rhombus;whiteSpace=wrap;html=1;strokeColor=#000000;" vertex="1" parent="1">
          <mxGeometry x="640" y="280" width="100" height="100" as="geometry" />
        </mxCell>
        <mxCell id="eyfIspoltdJtA8h51cMl-16" value="" style="endArrow=none;html=1;rounded=0;entryX=0.583;entryY=0.983;entryDx=0;entryDy=0;exitX=0.5;exitY=0;exitDx=0;exitDy=0;entryPerimeter=0;" edge="1" parent="1" source="eyfIspoltdJtA8h51cMl-15" target="eyfIspoltdJtA8h51cMl-4">
          <mxGeometry width="50" height="50" relative="1" as="geometry">
            <mxPoint x="400" y="310" as="sourcePoint" />
            <mxPoint x="450" y="260" as="targetPoint" />
          </mxGeometry>
        </mxCell>
        <mxCell id="eyfIspoltdJtA8h51cMl-17" value="" style="endArrow=none;html=1;rounded=0;entryX=0.5;entryY=1;entryDx=0;entryDy=0;" edge="1" parent="1" target="eyfIspoltdJtA8h51cMl-15">
          <mxGeometry width="50" height="50" relative="1" as="geometry">
            <mxPoint x="690" y="450" as="sourcePoint" />
            <mxPoint x="450" y="260" as="targetPoint" />
          </mxGeometry>
        </mxCell>
        <mxCell id="eyfIspoltdJtA8h51cMl-18" value="" style="endArrow=none;html=1;rounded=0;exitX=1;exitY=0.5;exitDx=0;exitDy=0;" edge="1" parent="1" source="eyfIspoltdJtA8h51cMl-6">
          <mxGeometry width="50" height="50" relative="1" as="geometry">
            <mxPoint x="400" y="310" as="sourcePoint" />
            <mxPoint x="690" y="450" as="targetPoint" />
          </mxGeometry>
        </mxCell>
        <mxCell id="eyfIspoltdJtA8h51cMl-20" value="STUDENT DETAILS" style="rounded=1;whiteSpace=wrap;html=1;strokeColor=#000000;" vertex="1" parent="1">
          <mxGeometry x="160" y="10" width="120" height="60" as="geometry" />
        </mxCell>
        <mxCell id="eyfIspoltdJtA8h51cMl-21" value="" style="endArrow=none;html=1;rounded=0;exitX=0.5;exitY=0;exitDx=0;exitDy=0;entryX=0.5;entryY=1;entryDx=0;entryDy=0;" edge="1" parent="1" source="eyfIspoltdJtA8h51cMl-1" target="eyfIspoltdJtA8h51cMl-20">
          <mxGeometry width="50" height="50" relative="1" as="geometry">
            <mxPoint x="400" y="330" as="sourcePoint" />
            <mxPoint x="450" y="280" as="targetPoint" />
          </mxGeometry>
        </mxCell>
        <mxCell id="eyfIspoltdJtA8h51cMl-22" value="UPLOADS" style="rhombus;whiteSpace=wrap;html=1;strokeColor=#000000;" vertex="1" parent="1">
          <mxGeometry x="180" y="90" width="80" height="70" as="geometry" />
        </mxCell>
        <mxCell id="eyfIspoltdJtA8h51cMl-23" value="&lt;u&gt;CID&lt;/u&gt;" style="ellipse;whiteSpace=wrap;html=1;strokeColor=#000000;" vertex="1" parent="1">
          <mxGeometry x="320" y="360" width="60" height="40" as="geometry" />
        </mxCell>
        <mxCell id="eyfIspoltdJtA8h51cMl-24" value="CNAME" style="ellipse;whiteSpace=wrap;html=1;strokeColor=#000000;" vertex="1" parent="1">
          <mxGeometry x="415" y="360" width="60" height="40" as="geometry" />
        </mxCell>
        <mxCell id="eyfIspoltdJtA8h51cMl-25" value="CEMAIL" style="ellipse;whiteSpace=wrap;html=1;strokeColor=#000000;" vertex="1" parent="1">
          <mxGeometry x="520" y="360" width="60" height="40" as="geometry" />
        </mxCell>
        <mxCell id="eyfIspoltdJtA8h51cMl-26" value="CONTACT" style="ellipse;whiteSpace=wrap;html=1;strokeColor=#000000;" vertex="1" parent="1">
          <mxGeometry x="320" y="500" width="60" height="40" as="geometry" />
        </mxCell>
        <mxCell id="eyfIspoltdJtA8h51cMl-27" value="CDESC" style="ellipse;whiteSpace=wrap;html=1;strokeColor=#000000;" vertex="1" parent="1">
          <mxGeometry x="415" y="500" width="60" height="40" as="geometry" />
        </mxCell>
        <mxCell id="eyfIspoltdJtA8h51cMl-28" value="CTYPE" style="ellipse;whiteSpace=wrap;html=1;strokeColor=#000000;" vertex="1" parent="1">
          <mxGeometry x="520" y="500" width="60" height="40" as="geometry" />
        </mxCell>
        <mxCell id="eyfIspoltdJtA8h51cMl-29" value="" style="endArrow=none;html=1;rounded=0;exitX=0;exitY=0;exitDx=0;exitDy=0;entryX=0.727;entryY=0.995;entryDx=0;entryDy=0;entryPerimeter=0;" edge="1" parent="1" source="eyfIspoltdJtA8h51cMl-6" target="eyfIspoltdJtA8h51cMl-23">
          <mxGeometry width="50" height="50" relative="1" as="geometry">
            <mxPoint x="470" y="270" as="sourcePoint" />
            <mxPoint x="520" y="220" as="targetPoint" />
          </mxGeometry>
        </mxCell>
        <mxCell id="eyfIspoltdJtA8h51cMl-31" value="" style="endArrow=none;html=1;rounded=0;exitX=0.5;exitY=0;exitDx=0;exitDy=0;entryX=0.5;entryY=1;entryDx=0;entryDy=0;" edge="1" parent="1" source="eyfIspoltdJtA8h51cMl-6" target="eyfIspoltdJtA8h51cMl-24">
          <mxGeometry width="50" height="50" relative="1" as="geometry">
            <mxPoint x="440" y="410" as="sourcePoint" />
            <mxPoint x="418.6199999999999" y="389.79999999999995" as="targetPoint" />
          </mxGeometry>
        </mxCell>
        <mxCell id="eyfIspoltdJtA8h51cMl-32" value="" style="endArrow=none;html=1;rounded=0;exitX=1;exitY=0;exitDx=0;exitDy=0;entryX=0;entryY=1;entryDx=0;entryDy=0;" edge="1" parent="1" source="eyfIspoltdJtA8h51cMl-6" target="eyfIspoltdJtA8h51cMl-25">
          <mxGeometry width="50" height="50" relative="1" as="geometry">
            <mxPoint x="520" y="410" as="sourcePoint" />
            <mxPoint x="498.6199999999999" y="389.79999999999995" as="targetPoint" />
          </mxGeometry>
        </mxCell>
        <mxCell id="eyfIspoltdJtA8h51cMl-33" value="" style="endArrow=none;html=1;rounded=0;exitX=0.66;exitY=0.015;exitDx=0;exitDy=0;entryX=0;entryY=1;entryDx=0;entryDy=0;exitPerimeter=0;" edge="1" parent="1" source="eyfIspoltdJtA8h51cMl-26" target="eyfIspoltdJtA8h51cMl-6">
          <mxGeometry width="50" height="50" relative="1" as="geometry">
            <mxPoint x="330" y="470" as="sourcePoint" />
            <mxPoint x="308.6199999999999" y="449.79999999999995" as="targetPoint" />
          </mxGeometry>
        </mxCell>
        <mxCell id="eyfIspoltdJtA8h51cMl-34" value="" style="endArrow=none;html=1;rounded=0;entryX=0.5;entryY=1;entryDx=0;entryDy=0;exitX=0.5;exitY=0;exitDx=0;exitDy=0;" edge="1" parent="1" source="eyfIspoltdJtA8h51cMl-27" target="eyfIspoltdJtA8h51cMl-6">
          <mxGeometry width="50" height="50" relative="1" as="geometry">
            <mxPoint x="440" y="500" as="sourcePoint" />
            <mxPoint x="468.6199999999999" y="489.79999999999995" as="targetPoint" />
          </mxGeometry>
        </mxCell>
        <mxCell id="eyfIspoltdJtA8h51cMl-35" value="" style="endArrow=none;html=1;rounded=0;exitX=1;exitY=1;exitDx=0;exitDy=0;entryX=0.167;entryY=0;entryDx=0;entryDy=0;entryPerimeter=0;" edge="1" parent="1" source="eyfIspoltdJtA8h51cMl-6" target="eyfIspoltdJtA8h51cMl-28">
          <mxGeometry width="50" height="50" relative="1" as="geometry">
            <mxPoint x="470" y="270" as="sourcePoint" />
            <mxPoint x="520" y="220" as="targetPoint" />
          </mxGeometry>
        </mxCell>
        <mxCell id="eyfIspoltdJtA8h51cMl-36" value="NAME" style="ellipse;whiteSpace=wrap;html=1;strokeColor=#000000;" vertex="1" parent="1">
          <mxGeometry x="70" y="190" width="70" height="40" as="geometry" />
        </mxCell>
        <mxCell id="eyfIspoltdJtA8h51cMl-37" value="FNAME" style="ellipse;whiteSpace=wrap;html=1;strokeColor=#000000;" vertex="1" parent="1">
          <mxGeometry y="145" width="50" height="35" as="geometry" />
        </mxCell>
        <mxCell id="eyfIspoltdJtA8h51cMl-38" value="MNAME" style="ellipse;whiteSpace=wrap;html=1;strokeColor=#000000;" vertex="1" parent="1">
          <mxGeometry y="195" width="50" height="35" as="geometry" />
        </mxCell>
        <mxCell id="eyfIspoltdJtA8h51cMl-39" value="LNAME" style="ellipse;whiteSpace=wrap;html=1;strokeColor=#000000;" vertex="1" parent="1">
          <mxGeometry y="240" width="50" height="35" as="geometry" />
        </mxCell>
        <mxCell id="eyfIspoltdJtA8h51cMl-40" value="" style="endArrow=none;html=1;rounded=0;exitX=0;exitY=0.5;exitDx=0;exitDy=0;entryX=1;entryY=0.5;entryDx=0;entryDy=0;" edge="1" parent="1" source="eyfIspoltdJtA8h51cMl-1" target="eyfIspoltdJtA8h51cMl-36">
          <mxGeometry width="50" height="50" relative="1" as="geometry">
            <mxPoint x="470" y="300" as="sourcePoint" />
            <mxPoint x="520" y="250" as="targetPoint" />
          </mxGeometry>
        </mxCell>
        <mxCell id="eyfIspoltdJtA8h51cMl-41" value="" style="endArrow=none;html=1;rounded=0;exitX=1;exitY=1;exitDx=0;exitDy=0;entryX=0;entryY=0;entryDx=0;entryDy=0;" edge="1" parent="1" source="eyfIspoltdJtA8h51cMl-37" target="eyfIspoltdJtA8h51cMl-36">
          <mxGeometry width="50" height="50" relative="1" as="geometry">
            <mxPoint x="470" y="300" as="sourcePoint" />
            <mxPoint x="520" y="250" as="targetPoint" />
          </mxGeometry>
        </mxCell>
        <mxCell id="eyfIspoltdJtA8h51cMl-42" value="" style="endArrow=none;html=1;rounded=0;exitX=0;exitY=0.5;exitDx=0;exitDy=0;entryX=1;entryY=0.5;entryDx=0;entryDy=0;" edge="1" parent="1" source="eyfIspoltdJtA8h51cMl-36" target="eyfIspoltdJtA8h51cMl-38">
          <mxGeometry width="50" height="50" relative="1" as="geometry">
            <mxPoint x="470" y="300" as="sourcePoint" />
            <mxPoint x="520" y="250" as="targetPoint" />
          </mxGeometry>
        </mxCell>
        <mxCell id="eyfIspoltdJtA8h51cMl-43" value="" style="endArrow=none;html=1;rounded=0;exitX=0;exitY=1;exitDx=0;exitDy=0;entryX=1;entryY=0;entryDx=0;entryDy=0;" edge="1" parent="1" source="eyfIspoltdJtA8h51cMl-36" target="eyfIspoltdJtA8h51cMl-39">
          <mxGeometry width="50" height="50" relative="1" as="geometry">
            <mxPoint x="470" y="300" as="sourcePoint" />
            <mxPoint x="520" y="250" as="targetPoint" />
          </mxGeometry>
        </mxCell>
        <mxCell id="eyfIspoltdJtA8h51cMl-44" value="SEMAIL" style="ellipse;whiteSpace=wrap;html=1;strokeColor=#000000;" vertex="1" parent="1">
          <mxGeometry x="320" y="120" width="70" height="40" as="geometry" />
        </mxCell>
        <mxCell id="eyfIspoltdJtA8h51cMl-45" value="" style="endArrow=none;html=1;rounded=0;exitX=1;exitY=0;exitDx=0;exitDy=0;entryX=0;entryY=1;entryDx=0;entryDy=0;" edge="1" parent="1" source="eyfIspoltdJtA8h51cMl-1" target="eyfIspoltdJtA8h51cMl-44">
          <mxGeometry width="50" height="50" relative="1" as="geometry">
            <mxPoint x="470" y="300" as="sourcePoint" />
            <mxPoint x="520" y="250" as="targetPoint" />
          </mxGeometry>
        </mxCell>
        <mxCell id="eyfIspoltdJtA8h51cMl-46" value="&lt;u&gt;SID&lt;/u&gt;" style="ellipse;whiteSpace=wrap;html=1;strokeColor=#000000;" vertex="1" parent="1">
          <mxGeometry x="320" y="240" width="70" height="40" as="geometry" />
        </mxCell>
        <mxCell id="eyfIspoltdJtA8h51cMl-47" value="" style="endArrow=none;html=1;rounded=0;exitX=1;exitY=1;exitDx=0;exitDy=0;entryX=0;entryY=0.5;entryDx=0;entryDy=0;" edge="1" parent="1" source="eyfIspoltdJtA8h51cMl-1" target="eyfIspoltdJtA8h51cMl-46">
          <mxGeometry width="50" height="50" relative="1" as="geometry">
            <mxPoint x="470" y="300" as="sourcePoint" />
            <mxPoint x="520" y="250" as="targetPoint" />
          </mxGeometry>
        </mxCell>
        <mxCell id="eyfIspoltdJtA8h51cMl-48" value="SEX" style="ellipse;whiteSpace=wrap;html=1;strokeColor=#000000;" vertex="1" parent="1">
          <mxGeometry x="90" y="120" width="70" height="40" as="geometry" />
        </mxCell>
        <mxCell id="eyfIspoltdJtA8h51cMl-49" value="" style="endArrow=none;html=1;rounded=0;exitX=0.5;exitY=1;exitDx=0;exitDy=0;entryX=0;entryY=0;entryDx=0;entryDy=0;" edge="1" parent="1" source="eyfIspoltdJtA8h51cMl-48" target="eyfIspoltdJtA8h51cMl-1">
          <mxGeometry width="50" height="50" relative="1" as="geometry">
            <mxPoint x="470" y="300" as="sourcePoint" />
            <mxPoint x="520" y="250" as="targetPoint" />
          </mxGeometry>
        </mxCell>
        <mxCell id="eyfIspoltdJtA8h51cMl-50" value="ADDRESS" style="ellipse;whiteSpace=wrap;html=1;strokeColor=#000000;" vertex="1" parent="1">
          <mxGeometry x="90" y="250" width="70" height="40" as="geometry" />
        </mxCell>
        <mxCell id="eyfIspoltdJtA8h51cMl-51" value="" style="endArrow=none;html=1;rounded=0;exitX=1;exitY=0;exitDx=0;exitDy=0;entryX=0;entryY=1;entryDx=0;entryDy=0;" edge="1" parent="1" source="eyfIspoltdJtA8h51cMl-50" target="eyfIspoltdJtA8h51cMl-1">
          <mxGeometry width="50" height="50" relative="1" as="geometry">
            <mxPoint x="470" y="300" as="sourcePoint" />
            <mxPoint x="520" y="250" as="targetPoint" />
          </mxGeometry>
        </mxCell>
        <mxCell id="eyfIspoltdJtA8h51cMl-53" value="VACANCY&lt;br&gt;TITLE" style="ellipse;whiteSpace=wrap;html=1;strokeColor=#000000;" vertex="1" parent="1">
          <mxGeometry x="530" y="90" width="70" height="40" as="geometry" />
        </mxCell>
        <mxCell id="eyfIspoltdJtA8h51cMl-54" value="CRITERIA" style="ellipse;whiteSpace=wrap;html=1;strokeColor=#000000;" vertex="1" parent="1">
          <mxGeometry x="640" y="90" width="70" height="40" as="geometry" />
        </mxCell>
        <mxCell id="eyfIspoltdJtA8h51cMl-55" value="JOB_DESC" style="ellipse;whiteSpace=wrap;html=1;strokeColor=#000000;" vertex="1" parent="1">
          <mxGeometry x="770" y="90" width="70" height="40" as="geometry" />
        </mxCell>
        <mxCell id="eyfIspoltdJtA8h51cMl-56" value="LAST&lt;br&gt;DATE" style="ellipse;whiteSpace=wrap;html=1;strokeColor=#000000;" vertex="1" parent="1">
          <mxGeometry x="530" y="260" width="70" height="40" as="geometry" />
        </mxCell>
        <mxCell id="eyfIspoltdJtA8h51cMl-57" value="SALARY" style="ellipse;whiteSpace=wrap;html=1;strokeColor=#000000;" vertex="1" parent="1">
          <mxGeometry x="770" y="190" width="70" height="40" as="geometry" />
        </mxCell>
        <mxCell id="eyfIspoltdJtA8h51cMl-58" value="JOB&lt;br&gt;OPENINGS" style="ellipse;whiteSpace=wrap;html=1;strokeColor=#000000;" vertex="1" parent="1">
          <mxGeometry x="770" y="260" width="80" height="50" as="geometry" />
        </mxCell>
        <mxCell id="eyfIspoltdJtA8h51cMl-59" value="" style="endArrow=none;html=1;rounded=0;entryX=0;entryY=0;entryDx=0;entryDy=0;exitX=0.5;exitY=1;exitDx=0;exitDy=0;" edge="1" parent="1" source="eyfIspoltdJtA8h51cMl-53" target="eyfIspoltdJtA8h51cMl-4">
          <mxGeometry width="50" height="50" relative="1" as="geometry">
            <mxPoint x="470" y="300" as="sourcePoint" />
            <mxPoint x="520" y="250" as="targetPoint" />
          </mxGeometry>
        </mxCell>
        <mxCell id="eyfIspoltdJtA8h51cMl-60" value="" style="endArrow=none;html=1;rounded=0;entryX=0.5;entryY=0;entryDx=0;entryDy=0;" edge="1" parent="1" target="eyfIspoltdJtA8h51cMl-4">
          <mxGeometry width="50" height="50" relative="1" as="geometry">
            <mxPoint x="680" y="130" as="sourcePoint" />
            <mxPoint x="735" y="200" as="targetPoint" />
          </mxGeometry>
        </mxCell>
        <mxCell id="eyfIspoltdJtA8h51cMl-61" value="" style="endArrow=none;html=1;rounded=0;entryX=0;entryY=1;entryDx=0;entryDy=0;exitX=1;exitY=0;exitDx=0;exitDy=0;" edge="1" parent="1" source="eyfIspoltdJtA8h51cMl-4" target="eyfIspoltdJtA8h51cMl-55">
          <mxGeometry width="50" height="50" relative="1" as="geometry">
            <mxPoint x="750" y="160" as="sourcePoint" />
            <mxPoint x="805" y="210" as="targetPoint" />
          </mxGeometry>
        </mxCell>
        <mxCell id="eyfIspoltdJtA8h51cMl-62" value="" style="endArrow=none;html=1;rounded=0;entryX=0;entryY=0.5;entryDx=0;entryDy=0;exitX=1;exitY=0.5;exitDx=0;exitDy=0;" edge="1" parent="1" source="eyfIspoltdJtA8h51cMl-4" target="eyfIspoltdJtA8h51cMl-57">
          <mxGeometry width="50" height="50" relative="1" as="geometry">
            <mxPoint x="760" y="210" as="sourcePoint" />
            <mxPoint x="815" y="260" as="targetPoint" />
          </mxGeometry>
        </mxCell>
        <mxCell id="eyfIspoltdJtA8h51cMl-63" value="" style="endArrow=none;html=1;rounded=0;entryX=0.046;entryY=0.295;entryDx=0;entryDy=0;exitX=1;exitY=1;exitDx=0;exitDy=0;entryPerimeter=0;" edge="1" parent="1" source="eyfIspoltdJtA8h51cMl-4" target="eyfIspoltdJtA8h51cMl-58">
          <mxGeometry width="50" height="50" relative="1" as="geometry">
            <mxPoint x="750" y="250" as="sourcePoint" />
            <mxPoint x="805" y="300" as="targetPoint" />
          </mxGeometry>
        </mxCell>
        <mxCell id="eyfIspoltdJtA8h51cMl-64" value="" style="endArrow=none;html=1;rounded=0;entryX=0;entryY=1;entryDx=0;entryDy=0;exitX=1;exitY=0;exitDx=0;exitDy=0;" edge="1" parent="1" source="eyfIspoltdJtA8h51cMl-56" target="eyfIspoltdJtA8h51cMl-4">
          <mxGeometry width="50" height="50" relative="1" as="geometry">
            <mxPoint x="590" y="240" as="sourcePoint" />
            <mxPoint x="645" y="290" as="targetPoint" />
          </mxGeometry>
        </mxCell>
        <mxCell id="eyfIspoltdJtA8h51cMl-65" value="CGPA" style="ellipse;whiteSpace=wrap;html=1;strokeColor=#000000;" vertex="1" parent="1">
          <mxGeometry x="35" y="20" width="70" height="40" as="geometry" />
        </mxCell>
        <mxCell id="eyfIspoltdJtA8h51cMl-66" value="RESUME" style="ellipse;whiteSpace=wrap;html=1;strokeColor=#000000;" vertex="1" parent="1">
          <mxGeometry x="330" width="70" height="40" as="geometry" />
        </mxCell>
        <mxCell id="eyfIspoltdJtA8h51cMl-67" value="\MARKSHEET" style="ellipse;whiteSpace=wrap;html=1;strokeColor=#000000;" vertex="1" parent="1">
          <mxGeometry x="328" y="60" width="76" height="45" as="geometry" />
        </mxCell>
        <mxCell id="eyfIspoltdJtA8h51cMl-68" value="" style="endArrow=none;html=1;rounded=0;exitX=0;exitY=0.5;exitDx=0;exitDy=0;entryX=1;entryY=1;entryDx=0;entryDy=0;" edge="1" parent="1" source="eyfIspoltdJtA8h51cMl-67" target="eyfIspoltdJtA8h51cMl-20">
          <mxGeometry width="50" height="50" relative="1" as="geometry">
            <mxPoint x="422" y="278" as="sourcePoint" />
            <mxPoint x="472" y="228" as="targetPoint" />
          </mxGeometry>
        </mxCell>
        <mxCell id="eyfIspoltdJtA8h51cMl-69" value="" style="endArrow=none;html=1;rounded=0;entryX=1;entryY=0.5;entryDx=0;entryDy=0;exitX=0;exitY=0.5;exitDx=0;exitDy=0;" edge="1" parent="1" source="eyfIspoltdJtA8h51cMl-66" target="eyfIspoltdJtA8h51cMl-20">
          <mxGeometry width="50" height="50" relative="1" as="geometry">
            <mxPoint x="422" y="278" as="sourcePoint" />
            <mxPoint x="472" y="228" as="targetPoint" />
          </mxGeometry>
        </mxCell>
        <mxCell id="eyfIspoltdJtA8h51cMl-70" value="" style="endArrow=none;html=1;rounded=0;entryX=1;entryY=0.5;entryDx=0;entryDy=0;" edge="1" parent="1" target="eyfIspoltdJtA8h51cMl-65">
          <mxGeometry width="50" height="50" relative="1" as="geometry">
            <mxPoint x="158" y="39" as="sourcePoint" />
            <mxPoint x="86" y="79" as="targetPoint" />
          </mxGeometry>
        </mxCell>
        <mxCell id="eyfIspoltdJtA8h51cMl-71" value="" style="endArrow=none;html=1;rounded=0;" edge="1" parent="1">
          <mxGeometry width="50" height="50" relative="1" as="geometry">
            <mxPoint x="228" y="441" as="sourcePoint" />
            <mxPoint x="228" y="372" as="targetPoint" />
            <Array as="points">
              <mxPoint x="228" y="402" />
            </Array>
          </mxGeometry>
        </mxCell>
        <mxCell id="eyfIspoltdJtA8h51cMl-72" value="" style="endArrow=none;html=1;rounded=0;entryX=0;entryY=0.5;entryDx=0;entryDy=0;" edge="1" parent="1">
          <mxGeometry width="50" height="50" relative="1" as="geometry">
            <mxPoint x="220" y="442" as="sourcePoint" />
            <mxPoint x="385" y="442" as="targetPoint" />
            <Array as="points" />
          </mxGeometry>
        </mxCell>
        <mxCell id="eyfIspoltdJtA8h51cMl-74" value="" style="endArrow=none;html=1;rounded=0;entryX=0.5;entryY=1;entryDx=0;entryDy=0;" edge="1" parent="1">
          <mxGeometry width="50" height="50" relative="1" as="geometry">
            <mxPoint x="684" y="442" as="sourcePoint" />
            <mxPoint x="684" y="372" as="targetPoint" />
          </mxGeometry>
        </mxCell>
        <mxCell id="eyfIspoltdJtA8h51cMl-75" value="" style="endArrow=none;html=1;rounded=0;exitX=1;exitY=0.5;exitDx=0;exitDy=0;" edge="1" parent="1">
          <mxGeometry width="50" height="50" relative="1" as="geometry">
            <mxPoint x="505" y="442" as="sourcePoint" />
            <mxPoint x="690" y="442" as="targetPoint" />
          </mxGeometry>
        </mxCell>
        <mxCell id="eyfIspoltdJtA8h51cMl-76" value="" style="endArrow=none;html=1;rounded=0;exitX=0.884;exitY=0.592;exitDx=0;exitDy=0;exitPerimeter=0;entryX=-0.003;entryY=0.637;entryDx=0;entryDy=0;entryPerimeter=0;" edge="1" parent="1" source="eyfIspoltdJtA8h51cMl-2" target="eyfIspoltdJtA8h51cMl-4">
          <mxGeometry width="50" height="50" relative="1" as="geometry">
            <mxPoint x="482" y="215" as="sourcePoint" />
            <mxPoint x="620" y="217" as="targetPoint" />
            <Array as="points">
              <mxPoint x="610" y="217" />
            </Array>
          </mxGeometry>
        </mxCell>
        <mxCell id="eyfIspoltdJtA8h51cMl-77" value="N" style="text;html=1;align=center;verticalAlign=middle;resizable=0;points=[];autosize=1;strokeColor=none;fillColor=none;" vertex="1" parent="1">
          <mxGeometry x="216" y="240" width="27" height="26" as="geometry" />
        </mxCell>
        <mxCell id="eyfIspoltdJtA8h51cMl-78" value="M" style="text;html=1;align=center;verticalAlign=middle;resizable=0;points=[];autosize=1;strokeColor=none;fillColor=none;" vertex="1" parent="1">
          <mxGeometry x="358" y="418" width="28" height="26" as="geometry" />
        </mxCell>
        <mxCell id="eyfIspoltdJtA8h51cMl-80" value="M" style="text;html=1;align=center;verticalAlign=middle;resizable=0;points=[];autosize=1;strokeColor=none;fillColor=none;" vertex="1" parent="1">
          <mxGeometry x="506" y="417" width="28" height="26" as="geometry" />
        </mxCell>
        <mxCell id="eyfIspoltdJtA8h51cMl-82" value="N" style="text;html=1;align=center;verticalAlign=middle;resizable=0;points=[];autosize=1;strokeColor=none;fillColor=none;" vertex="1" parent="1">
          <mxGeometry x="686" y="245" width="27" height="26" as="geometry" />
        </mxCell>
        <mxCell id="eyfIspoltdJtA8h51cMl-83" value="M" style="text;html=1;align=center;verticalAlign=middle;resizable=0;points=[];autosize=1;strokeColor=none;fillColor=none;" vertex="1" parent="1">
          <mxGeometry x="373" y="185" width="28" height="26" as="geometry" />
        </mxCell>
        <mxCell id="eyfIspoltdJtA8h51cMl-85" value="N" style="text;html=1;align=center;verticalAlign=middle;resizable=0;points=[];autosize=1;strokeColor=none;fillColor=none;" vertex="1" parent="1">
          <mxGeometry x="485" y="186" width="27" height="26" as="geometry" />
        </mxCell>
        <mxCell id="eyfIspoltdJtA8h51cMl-86" value="1" style="text;html=1;align=center;verticalAlign=middle;resizable=0;points=[];autosize=1;strokeColor=none;fillColor=none;" vertex="1" parent="1">
          <mxGeometry x="195" y="149" width="25" height="26" as="geometry" />
        </mxCell>
        <mxCell id="eyfIspoltdJtA8h51cMl-88" value="1" style="text;html=1;align=center;verticalAlign=middle;resizable=0;points=[];autosize=1;strokeColor=none;fillColor=none;" vertex="1" parent="1">
          <mxGeometry x="200" y="70" width="25" height="26" as="geometry" />
        </mxCell>
        <mxCell id="eyfIspoltdJtA8h51cMl-89" value="&lt;u&gt;SID&lt;/u&gt;" style="ellipse;whiteSpace=wrap;html=1;strokeColor=#000000;" vertex="1" parent="1">
          <mxGeometry x="410" y="103" width="70" height="40" as="geometry" />
        </mxCell>
        <mxCell id="eyfIspoltdJtA8h51cMl-90" value="&lt;u&gt;CID&lt;/u&gt;" style="ellipse;whiteSpace=wrap;html=1;strokeColor=#000000;" vertex="1" parent="1">
          <mxGeometry x="410" y="275" width="70" height="40" as="geometry" />
        </mxCell>
        <mxCell id="eyfIspoltdJtA8h51cMl-91" value="" style="endArrow=none;html=1;rounded=0;entryX=0.5;entryY=1;entryDx=0;entryDy=0;exitX=0.5;exitY=0;exitDx=0;exitDy=0;" edge="1" parent="1" source="eyfIspoltdJtA8h51cMl-90" target="eyfIspoltdJtA8h51cMl-2">
          <mxGeometry width="50" height="50" relative="1" as="geometry">
            <mxPoint x="422" y="303" as="sourcePoint" />
            <mxPoint x="472" y="253" as="targetPoint" />
          </mxGeometry>
        </mxCell>
        <mxCell id="eyfIspoltdJtA8h51cMl-92" value="" style="endArrow=none;html=1;rounded=0;entryX=0.5;entryY=1;entryDx=0;entryDy=0;exitX=0.5;exitY=0;exitDx=0;exitDy=0;" edge="1" parent="1" source="eyfIspoltdJtA8h51cMl-2" target="eyfIspoltdJtA8h51cMl-89">
          <mxGeometry width="50" height="50" relative="1" as="geometry">
            <mxPoint x="422" y="270" as="sourcePoint" />
            <mxPoint x="472" y="220" as="targetPoint" />
          </mxGeometry>
        </mxCell>
      </root>
    </mxGraphModel>
  </diagram>
</mxfile>
